<?xml version="1.0" standalone="no"?>
<!DOCTYPE svg PUBLIC "-//W3C//DTD SVG 20010904//EN"
 "http://www.w3.org/TR/2001/REC-SVG-20010904/DTD/svg10.dtd">
<svg version="1.0" xmlns="http://www.w3.org/2000/svg"
 width="700.000000pt" height="700.000000pt" viewBox="0 0 700.000000 700.000000"
 preserveAspectRatio="xMidYMid meet">
<metadata>
Created by potrace 1.14, written by Peter Selinger 2001-2017
</metadata>
<g transform="translate(0.000000,700.000000) scale(0.100000,-0.100000)"
fill="#000000" stroke="none">
<path d="M0 3500 l0 -3500 3500 0 3500 0 0 3500 0 3500 -3500 0 -3500 0 0
-3500z m3250 1110 l0 -150 -740 0 -740 0 0 -380 0 -380 693 -2 692 -3 0 -145
0 -145 -692 -3 -693 -2 0 -425 0 -425 770 0 770 0 0 -150 0 -150 -935 0 -935
0 0 1255 0 1255 905 0 905 0 0 -150z m920 -242 c265 -406 377 -584 445 -706
22 -39 43 -72 46 -72 3 0 43 62 89 138 74 122 238 375 564 870 l107 162 190 0
c104 0 189 -2 189 -5 0 -3 -223 -327 -495 -720 l-495 -715 -2 -533 -3 -532
-162 -3 -163 -2 0 530 0 530 -486 725 -485 725 203 0 203 -1 255 -391z"/>
</g>
</svg>
